<?xml version="1.0" encoding="UTF-8"?>
<svg xmlns="http://www.w3.org/2000/svg" viewBox="0 0 32.66 32.66"><defs><style>.cls-1{fill:#ff2f1a;}.cls-2{fill:#fff;}</style></defs><g id="Layer_2" data-name="Layer 2"><g id="Layer_1-2" data-name="Layer 1"><circle class="cls-1" cx="16.33" cy="16.33" r="16.33"/><path class="cls-2" d="M10.78,23.38a1.51,1.51,0,0,1-1.06-.44,1.49,1.49,0,0,1,0-2.12l11.1-11.1a1.5,1.5,0,1,1,2.12,2.12l-11.1,11.1A1.51,1.51,0,0,1,10.78,23.38Z"/><path class="cls-2" d="M21.88,23.38a1.51,1.51,0,0,1-1.06-.44L9.72,11.84a1.5,1.5,0,0,1,2.12-2.12l11.1,11.1a1.49,1.49,0,0,1,0,2.12A1.51,1.51,0,0,1,21.88,23.38Z"/></g></g></svg>